<svg width="220" height="50" viewBox="0 0 220 50" fill="none" xmlns="http://www.w3.org/2000/svg">
<path d="M106.148 41.1103H109.623V8.78452H106.943V37.3053H106.777L89.8036 8.78452H86.3295V41.1103H89.0096V12.5895H89.1419L106.148 41.1103ZM128.879 41.1103V27.8756L140.095 8.78452H136.952L127.589 25.0963H127.456L118.093 8.78452H114.95L126.1 28.0079V41.1103H128.879ZM166.83 11.2329V8.78452H142.378V11.2329H153.198V41.1103H155.977V11.2329H166.83ZM192.075 20.0671C192.075 12.9865 188.468 8.22205 181.652 8.22205C175.333 8.22205 171.263 12.4241 171.263 18.6775C171.263 24.7654 175.201 28.5704 180.891 28.5704C184.796 28.5704 187.376 26.7175 188.965 23.839L189.163 23.8721C187.575 31.482 183.638 36.2134 176.491 41.1103H180.13C186.053 37.3053 192.075 30.0262 192.075 20.0671ZM181.686 26.1882C176.921 26.1882 174.142 23.3096 174.142 18.8429V18.0488C174.142 13.549 176.954 10.6374 181.686 10.6374C186.384 10.6374 189.196 13.549 189.196 18.0819V18.8429C189.196 23.3096 186.417 26.1882 181.686 26.1882ZM220 38.6619H202.265L212.225 29.199C216.096 25.5926 218.643 22.1185 218.643 17.4532C218.643 11.9278 215.236 8.22205 209.114 8.22205C203.225 8.22205 200.28 11.6962 199.056 15.6335L201.571 16.5599C202.596 13.1189 204.714 10.7366 209.015 10.7366C213.482 10.7366 215.699 13.4167 215.699 17.2216V18.0819C215.699 21.3244 213.548 24.5338 210.537 27.4455L199.255 38.2979V41.1103H220V38.6619Z" fill="white"/>
<path d="M72.6645 49.3323H48.665C48.5413 49.3323 48.42 49.2979 48.3148 49.2329C48.2095 49.1679 48.1244 49.0749 48.069 48.9644L24.0695 0.965315C24.0189 0.863638 23.9952 0.750755 24.0004 0.637329C24.0056 0.523903 24.0396 0.413676 24.0993 0.317061C24.1589 0.220446 24.2422 0.140632 24.3413 0.0851551C24.4404 0.0296782 24.5519 0.00036991 24.6655 0H48.665C48.7887 4.15103e-06 48.91 0.0344271 49.0152 0.0994167C49.1205 0.164406 49.2056 0.257398 49.261 0.367991L73.2605 48.367C73.3107 48.4688 73.3341 48.5815 73.3288 48.6948C73.3234 48.8081 73.2893 48.9182 73.2297 49.0147C73.1701 49.1112 73.087 49.1909 72.9881 49.2465C72.8893 49.3021 72.7779 49.3316 72.6645 49.3323V49.3323ZM49.077 47.999H71.5872L48.2543 1.33331H25.7441L49.077 47.999Z" fill="#88DF95"/>
<path d="M48.665 49.3323H0.665964C0.552464 49.3322 0.440872 49.3031 0.341762 49.2478C0.242652 49.1925 0.159307 49.1128 0.0996201 49.0163C0.0399337 48.9197 0.00588451 48.8095 0.000696834 48.6962C-0.00449084 48.5828 0.0193541 48.47 0.0699754 48.3684L24.0695 0.369328C24.2962 -0.0826633 25.0361 -0.0826633 25.2628 0.369328L49.2623 48.3684C49.3128 48.4699 49.3368 48.5826 49.3319 48.696C49.327 48.8093 49.2934 48.9195 49.2343 49.0164C49.1738 49.1128 49.0899 49.1923 48.9903 49.2476C48.8908 49.3028 48.7789 49.332 48.665 49.3323V49.3323ZM1.74461 47.999H47.5864L24.6655 2.15729L1.74461 47.999V47.999Z" fill="#88DF95"/>
</svg>
